<svg width="129" height="22" viewBox="0 0 129 22" fill="none" xmlns="http://www.w3.org/2000/svg">
<path d="M26.803 21.5547V0.771929H30.2279V21.5547H26.803ZM28.5601 21.5547V18.2888H40.2939V21.5547H28.5601Z" fill="#023047"/>
<path d="M56.0611 6.5614V21.5547H52.8746V17.7247L53.7382 17.7841C53.4205 18.655 52.9639 19.4071 52.3683 20.0405C51.7727 20.6541 51.0778 21.139 50.2836 21.4953C49.4894 21.8318 48.6258 22 47.6926 22C46.6205 22 45.6477 21.7724 44.7741 21.3171C43.9204 20.8421 43.2354 20.1493 42.7192 19.2389C42.203 18.3284 41.9449 17.2002 41.9449 15.8543V6.5614H45.3697V14.8448C45.3697 15.7751 45.4988 16.5371 45.7569 17.1309C46.0348 17.7247 46.4121 18.17 46.8885 18.4669C47.3849 18.744 47.9507 18.8826 48.5861 18.8826C49.1817 18.8826 49.7872 18.7341 50.4027 18.4372C51.0381 18.1206 51.5642 17.6158 51.9811 16.9231C52.4179 16.2303 52.6363 15.2901 52.6363 14.1026V6.5614H56.0611ZM47.1864 4.48313L49.1519 0.178137H53.4106V0.415654L50.5516 4.48313H47.1864Z" fill="#023047"/>
<path d="M59.8345 21.5547V6.5614H63.0509V10.2132L62.485 9.64912C62.8225 8.89699 63.2593 8.26361 63.7954 7.74899C64.3315 7.23437 64.9569 6.83851 65.6716 6.5614C66.3864 6.26451 67.1904 6.11606 68.0839 6.11606C69.3347 6.11606 70.4465 6.46244 71.4194 7.1552C72.3922 7.84795 73.0474 8.8673 73.3849 10.2132L72.283 10.1538C72.6205 9.30274 73.097 8.5803 73.7125 7.9865C74.328 7.39271 75.0427 6.93747 75.8567 6.62078C76.6906 6.2843 77.5642 6.11606 78.4775 6.11606C79.49 6.11606 80.4133 6.35358 81.2471 6.82861C82.1009 7.28385 82.7759 7.96671 83.2722 8.87719C83.7885 9.76788 84.0466 10.8862 84.0466 12.2321V21.5547H80.6217V13.0634C80.6217 12.1727 80.4927 11.4503 80.2346 10.8961C79.9765 10.3221 79.6191 9.90643 79.1625 9.64912C78.7058 9.37202 78.1797 9.23347 77.5841 9.23347C77.0281 9.23347 76.4424 9.38192 75.827 9.67881C75.2313 9.97571 74.7151 10.4705 74.2783 11.1633C73.8614 11.8363 73.6529 12.7764 73.6529 13.9838V21.5547H70.2281V13.0634C70.2281 12.1727 70.0991 11.4503 69.841 10.8961C69.5829 10.3221 69.2255 9.90643 68.7688 9.64912C68.3122 9.37202 67.7861 9.23347 67.1904 9.23347C66.6345 9.23347 66.0488 9.38192 65.4334 9.67881C64.8377 9.97571 64.3215 10.4705 63.8847 11.1633C63.4678 11.8561 63.2593 12.7962 63.2593 13.9838V21.5547H59.8345Z" fill="#023047"/>
<path d="M87.6671 21.5547V6.5614H91.0919V21.5547H87.6671ZM89.3944 4.30499C88.7987 4.30499 88.2925 4.09717 87.8755 3.68151C87.4586 3.26586 87.2501 2.75124 87.2501 2.13765C87.2501 1.56365 87.4586 1.06883 87.8755 0.65317C88.2925 0.217723 88.8087 0 89.4241 0C89.9999 0 90.4963 0.217723 90.9132 0.65317C91.35 1.06883 91.5684 1.57355 91.5684 2.16734C91.5684 2.76113 91.35 3.26586 90.9132 3.68151C90.4963 4.09717 89.99 4.30499 89.3944 4.30499Z" fill="#023047"/>
<path d="M94.8797 21.5547V6.5614H98.096V10.3914L97.2324 10.332C97.5501 9.46109 98.0067 8.71885 98.6023 8.10526C99.1979 7.47188 99.8928 6.98695 100.687 6.65047C101.481 6.2942 102.345 6.11606 103.278 6.11606C104.35 6.11606 105.313 6.35358 106.167 6.82861C107.04 7.28385 107.725 7.96671 108.222 8.87719C108.738 9.76788 108.996 10.8862 108.996 12.2321V21.5547H105.571V13.2713C105.571 12.3212 105.442 11.5493 105.184 10.9555C104.926 10.3617 104.549 9.92623 104.052 9.64912C103.576 9.37202 103.02 9.23347 102.385 9.23347C101.789 9.23347 101.173 9.38192 100.538 9.67881C99.9226 9.97571 99.3965 10.4705 98.9597 11.1633C98.5229 11.8561 98.3045 12.7962 98.3045 13.9838V21.5547H94.8797Z" fill="#023047"/>
<path d="M119.053 22C117.703 22 116.482 21.6635 115.39 20.9906C114.298 20.2978 113.434 19.3576 112.799 18.17C112.164 16.9825 111.846 15.6167 111.846 14.0729C111.846 12.5092 112.164 11.1336 112.799 9.94602C113.434 8.75843 114.298 7.82816 115.39 7.1552C116.482 6.46244 117.703 6.11606 119.053 6.11606C120.165 6.11606 121.158 6.34368 122.031 6.79892C122.925 7.25416 123.659 7.84795 124.235 8.5803C124.831 9.29285 125.248 10.0747 125.486 10.9258V17.22C125.248 18.0513 124.831 18.8331 124.235 19.5655C123.659 20.2978 122.925 20.8916 122.031 21.3468C121.158 21.7823 120.165 22 119.053 22ZM119.559 18.8826C120.433 18.8826 121.197 18.6847 121.853 18.2888C122.508 17.8731 123.024 17.2991 123.401 16.5668C123.778 15.8345 123.967 14.9933 123.967 14.0432C123.967 13.0931 123.778 12.2618 123.401 11.5493C123.024 10.8169 122.508 10.2429 121.853 9.82726C121.197 9.41161 120.433 9.20378 119.559 9.20378C118.726 9.20378 117.981 9.41161 117.326 9.82726C116.671 10.2429 116.164 10.8169 115.807 11.5493C115.45 12.2618 115.271 13.0931 115.271 14.0432C115.271 14.9933 115.45 15.8345 115.807 16.5668C116.164 17.2991 116.671 17.8731 117.326 18.2888C117.981 18.6847 118.726 18.8826 119.559 18.8826ZM128.345 21.5547C126.995 21.5547 125.942 21.1885 125.188 20.4561C124.453 19.704 124.086 18.6352 124.086 17.2497V16.3293L124.801 14.0432L123.907 11.193V6.5614H127.302V16.5668C127.302 17.2002 127.441 17.6752 127.719 17.9919C127.997 18.3086 128.375 18.4669 128.851 18.4669L129 18.7935V21.5547H128.345Z" fill="#023047"/>
<path d="M0 21.6734V18.4076H10.5127V21.6734H0Z" fill="#023047"/>
<path d="M3.72738 6.79115L6.04381 4.48184L13.4774 11.8926L11.161 14.2019L3.72738 6.79115Z" fill="#023047"/>
<path d="M17.5709 0.890686H20.8468V11.3711H17.5709V0.890686Z" fill="#023047"/>
</svg>
